<svg version="1" xmlns="http://www.w3.org/2000/svg" width="853.333" height="853.333" viewBox="0 0 640.000000 640.000000"><path d="M0 320v250h640V70H0v250zm300.8-195.8c1.9 1.9-.6 3.8-4.9 3.8h-3.8l-.3 11.7c-.3 11-.4 11.8-2.3 11.8s-2-.8-2.3-11.8l-.3-11.7h-4.3c-4.4 0-5.8-1.1-4.8-3.8.6-1.6 21.3-1.7 23 0zm12 5.6l.3 6.2H327v-6c0-4.6.4-6.2 1.6-6.7 2.8-1.1 3.4 1.9 3.2 15.2-.3 12.6-.4 13-2.5 13.3-2.2.3-2.3 0-2.3-5.7V140h-13.9l-.3 5.7c-.3 5-.6 5.8-2.3 5.8-1.9 0-2-.8-2.3-12.9-.3-14.3 0-15.9 2.5-15.4 1.5.3 1.9 1.6 2.1 6.6zm48.7-4.3c0 1.8-.8 2-7.7 2.3l-7.8.3v7.9h6.8c7.3 0 8.4.4 7.5 2.6-.4 1-2.4 1.4-7.4 1.4H346v7.9l7.7.3c6.5.3 7.8.6 8.1 2.1.3 1.6-.5 1.7-10 1.5l-10.3-.3-.3-12.9c-.2-8.8.1-13.3.9-14.2.9-1.1 3.4-1.4 10.3-1.2 8.3.3 9.1.5 9.1 2.3zm-47.9 71c6 1.7 7.9 3.5 7 6.9-.8 3.3-3.1 3.8-9.6 2.1-11-2.9-23.7-1.2-27.8 3.8-1.9 2.3-1.7 8.5.3 10.7 2 2.2 6.2 3.8 19.5 7.5 11.6 3.2 16.5 6.2 19.1 11.8 4.9 11-.9 22.5-13.3 26.2-9.3 2.7-23.7 1.6-33.5-2.6-3.7-1.6-4.3-2.3-4.3-4.7 0-5.2 2.1-5.9 10.3-3.2 5.1 1.7 9.5 2.3 15.2 2.4 10.9 0 15.8-2.6 17.1-9 .9-4.8-2.5-8-10.9-10.5-21.5-6.3-26.5-8.7-29.3-14.1-6.2-12.1 1.8-25.6 16.9-28.8 5.3-1.1 16.6-.4 23.3 1.5zm63.9-.3c8.1 2 10.6 5.6 6.5 9.3-1.9 1.7-2.3 1.7-7.8.1-11.4-3.2-23.3-1.6-27.8 3.7-2.9 3.5-3.1 6.6-.4 10 2.2 2.8 5.8 4.3 20 8.2 15.3 4.2 20.3 9 20.4 19.6.2 11.5-8.6 18.8-23.5 19.7-4.3.3-10.7-.1-14.2-.8-13.1-2.5-18.3-6.8-13.8-11.3l2.1-2.1 7.2 2.4c5.2 1.7 9.6 2.3 15.3 2.4 12.1 0 17-3.3 16.3-11.1-.4-4.8-3-6.3-18.2-10.7-17-4.9-22.3-9-23.4-18.1-.9-8.3 4.8-17.6 12.7-20.7 7.3-2.8 19-3.1 28.6-.6zm189.2.8c8.3 2.9 11.5 5.6 11.1 9.4-.4 4.2-3.4 4.5-11.2 1-5.1-2.4-7.4-2.8-14.1-2.8-13.1 0-21.4 5.5-25.1 16.8-2.1 6.3-1.5 16.6 1.4 22.2 2.6 5.2 8.8 10.8 13.8 12.5 5.6 2 17 1.6 22.2-.7l4.4-1.9.1-8.8.2-8.7h-9c-9.6 0-11.5-.8-11.5-4.5 0-4 1.8-4.5 14.7-4.5 15.9 0 15.6-.4 15.1 17.9-.4 15.2-.6 15.7-10.3 19.3-4.8 1.8-8.2 2.2-16.5 2.3-9.5 0-11.1-.3-16.8-2.9-11.6-5.4-18.3-15.9-19-30.2-1.5-28.6 22.7-46.1 50.5-36.4zm-462.6.4c5.6 2 11.4 7.6 13 12.3.6 1.9.9 6.5.7 10.3-.5 9-3.6 13.8-11.5 17.6-5.2 2.6-6.9 2.9-19 3.2l-13.3.4v10.9c0 9.6-.2 11.1-2 12.9-2.5 2.5-4.5 2.5-7 0-2-2-2.1-3-1.8-34.6.3-31.2.4-32.6 2.3-34.1 2.9-2.1 32-1.3 38.6 1.1zm65.4-1.4c9 1.3 15 4.9 18.2 10.9 4.3 8.3 2.1 19.1-5 24.5l-3.6 2.8 3.4 3c4.3 3.8 6.5 10.6 6.5 20.4 0 6.2-.3 7.5-1.9 8.4-2.8 1.4-3.8 1.3-6.1-1-1.6-1.6-2-3.3-2-8 0-7-1.6-11.5-5.4-15-2.6-2.4-3.5-2.5-16.2-2.8l-13.4-.4v12.3c0 10-.3 12.6-1.7 14.1-2 2.2-4.1 2.3-6.5.1-1.7-1.5-1.8-3.9-1.8-34.4 0-39.4-1.6-35.9 16.5-35.9 6.6 0 15.2.5 19 1zm86.3.6c2.7 1.9 2.9 6 .3 7.4-1.2.6-9.5 1-20 1H218v21h17c16.9 0 17 0 18.5 2.4 1.3 1.9 1.4 2.9.5 4.5-1 1.9-2.1 2.1-18.3 2.3l-17.2.3-.3 10.7-.3 10.8h18.9c19.7 0 21.2.3 21.2 4.5 0 4.3-1.3 4.5-24.6 4.5-18.9 0-22.5-.2-23.8-1.6-1.4-1.3-1.6-5.8-1.6-33.5 0-30.6.1-32 2-33.9 1.9-1.9 3.3-2 22.8-2 17.2 0 21.1.3 23 1.6zm157.3-.6c1.8 1 1.9 2.5 1.9 34.2 0 29.4-.2 33.3-1.7 35-2 2.2-4.1 2.3-6.5.1-1.7-1.5-1.8-3.9-1.8-34.4 0-28.4.2-33 1.6-34.3 1.8-1.9 3.8-2 6.5-.6zm38.2 3.2c1.8 2.4 10.8 15 19.8 28.1l16.4 23.8.3-26.2c.2-22.7.5-26.5 1.9-28.1 1.8-2.1 5.3-2.4 7.1-.6.9.9 1.2 9.8 1.2 33.9 0 28.4-.2 33-1.6 34.3-2.2 2.2-6.1 3-8.9 1.8-1.3-.6-10.4-12.8-21.1-28.3l-18.9-27.2-.5 26.7c-.5 25-.6 26.9-2.4 28.2-2.7 1.9-4.2 1.8-6.6-.6-2-2-2.1-3-1.8-34.1l.3-32.1 2.4-1.9c1.3-1 3.8-1.9 5.6-1.9 2.8 0 4 .8 6.8 4.2zM600 354v60H44V294h556v60zM85.5 460c2 1.6 1.9 6.4-.1 8.4-.8.9-3.1 1.6-4.9 1.6-2.9 0-3.4.4-3.7 2.7-.2 1.7-.9 2.8-1.8 2.8-2 0-2.8-15.4-.8-16.7 1.7-1.2 9.4-.4 11.3 1.2zm17.4-.9c3.4 1.2 5.1 5 3.2 7.3-.8 1-.8 2.1-.1 4 1.5 4 1.3 5.8-.7 5.4-.9-.2-2-1.4-2.3-2.8-.4-1.9-1.3-2.6-3.8-2.8-3-.3-3.2-.1-3.2 2.7 0 2.1-.5 3.1-1.5 3.1-1.2 0-1.5-1.6-1.5-8.3 0-4.6.3-8.7.7-9 1-1 5.6-.8 9.2.4zm24.2 1.5c2.7 2.4 3.4 7.6 1.5 11.2-1.8 3.4-3.3 4.2-8.6 4.2-7.8 0-10.8-9.3-5-15.2 2.7-2.6 3.6-3 6.7-2.5 1.9.4 4.4 1.4 5.4 2.3zm20.7-.9c.2.9-1 1.3-4.2 1.3-4.2 0-4.6.2-4.6 2.5 0 2.2.4 2.5 4 2.5 2.9 0 4 .4 4 1.5s-1.1 1.5-4 1.5c-3.9 0-4 .1-4 3.5 0 2.4-.5 3.5-1.5 3.5-1.2 0-1.5-1.6-1.5-8.3 0-4.6.3-8.7.7-9.1 1.2-1.2 10.6-.2 11.1 1.1zm18 0c.2.9-1 1.3-4.2 1.3-4.2 0-4.6.2-4.6 2.5 0 2.2.4 2.5 4 2.5 2.9 0 4 .4 4 1.5s-1.1 1.5-4 1.5c-3.3 0-4 .3-4 2s.7 2 4.5 2c3.4 0 4.5.4 4.5 1.5 0 1.3-1.1 1.5-6.2 1.3l-6.3-.3-.3-7.9c-.2-5.7.1-8.2 1-8.8 1.9-1.2 11.1-.5 11.6.9zm16.3-.6c2.9 1.5 1.3 3.1-2.5 2.4-2.3-.5-3.6-.2-4.5.9-1.4 1.6-.4 2.2 7.2 4.9 2.1.8 2.3 5.9.3 7.6-2.2 1.8-11 1-11.4-1-.2-1.4.5-1.5 4.8-1.1 4.1.4 5 .2 5-1.1 0-.9-1.5-2-3.7-2.8-5-1.6-6.3-2.7-6.3-5.5 0-4.3 6.5-6.8 11.1-4.3zm18 0c2.9 1.5 1.3 3.1-2.5 2.4-2.3-.5-3.6-.2-4.5.9-1.4 1.6-.4 2.2 7.2 4.9 2.1.8 2.3 5.9.3 7.6-2.2 1.8-11 1-11.4-1-.2-1.4.5-1.5 4.8-1.1 4.1.4 5 .2 5-1.1 0-.9-1.5-2-3.7-2.8-5-1.6-6.3-2.7-6.3-5.5 0-4.3 6.5-6.8 11.1-4.3zm10.9 8.5c0 6.8-.3 8.4-1.5 8.4s-1.5-1.6-1.5-8.3c0-4.6.3-8.7.6-9 1.7-1.6 2.4 1.1 2.4 8.9zm21.1-7c2.7 2.4 3.4 7.6 1.5 11.2-1.8 3.4-3.3 4.2-8.6 4.2-7.8 0-10.8-9.3-5-15.2 2.7-2.6 3.6-3 6.7-2.5 1.9.4 4.4 1.4 5.4 2.3zm16.1 3.6l4.3 6.3.5-5.8c.8-8.6 2.5-6.9 2.8 2.8.3 7.8.1 8.5-1.6 8.5-1.3 0-3.4-2.2-6.1-6.3l-4.1-6.2v6.2c0 4.9-.3 6.3-1.5 6.3s-1.5-1.6-1.5-8.3c0-12 1-12.5 7.2-3.5zm23.5-5c1.5 2 6.3 13.7 6.3 15.4 0 2.1-2.7 1.7-3.3-.6-.4-1.6-1.4-2-4.5-2-3.2 0-4.2.4-4.7 2-.6 2-3.5 2.9-3.5 1.1 0-.5.9-3.1 2.1-5.8 1.1-2.6 2.7-6.3 3.4-8.1 1.5-3.4 2.7-4 4.2-2zm15.3 6.9v6.9h4.5c3.4 0 4.5.4 4.5 1.5 0 1.3-1.1 1.5-5.7 1.3l-5.8-.3-.3-7.4c-.3-7.9.2-10.6 1.8-9.6.5.3 1 3.7 1 7.6zm26.8 1.2c.2 7.3 0 8.7-1.3 8.7-1.2 0-1.5-1.6-1.5-9.1 0-6.8.3-9 1.3-8.7.8.3 1.3 3.3 1.5 9.1zm17.1-8.2c3.4 1.2 5.1 5 3.2 7.3-.8 1-.8 2.1-.1 4 1.5 4 1.3 5.8-.7 5.4-.9-.2-2-1.4-2.3-2.8-.4-1.9-1.3-2.6-3.8-2.8-3-.3-3.2-.1-3.2 2.7 0 2.1-.5 3.1-1.5 3.1-1.2 0-1.5-1.6-1.5-8.3 0-4.6.3-8.7.7-9 1-1 5.6-.8 9.2.4zm24.2 1.5c2.7 2.4 3.4 7.6 1.5 11.2-1.8 3.4-3.3 4.2-8.6 4.2-7.8 0-10.8-9.3-5-15.2 2.7-2.6 3.6-3 6.7-2.5 1.9.4 4.4 1.4 5.4 2.3zm16.1 3.6l4.3 6.3.5-5.8c.8-8.6 2.5-6.9 2.8 2.8.3 7.8.1 8.5-1.6 8.5-1.3 0-3.4-2.2-6.1-6.3l-4.1-6.2v6.2c0 4.9-.3 6.3-1.5 6.3s-1.5-1.6-1.5-8.3c0-12 1-12.5 7.2-3.5zm17.8 3.4c0 6.8-.3 8.4-1.5 8.4s-1.5-1.6-1.5-8.3c0-4.6.3-8.7.6-9 1.7-1.6 2.4 1.1 2.4 8.9zm12.4-6.6c1.4 1.7 3.3 4.4 4.3 6 .9 1.7 2 3 2.3 3 .3 0 .4-2.1.2-4.7-.3-5.3 1-8.5 2.8-6.7.7.7 1 4.2.8 9-.4 10.4-2 10.9-8 2.4l-4.3-6.2-.3 6.1c-.2 4.5-.7 6.1-1.7 6.1-1.2 0-1.5-1.7-1.5-8.3 0-10.8.9-12 5.4-6.7zm29-2c1.4.5 2.6 1.6 2.6 2.5 0 1.8.1 1.8-3.9.4-4.3-1.5-8.1.9-8.1 5.1 0 3.8 2.5 6.2 6.3 5.8 3.8-.4 4.8-3.8 1.1-3.8-1.5 0-2.4-.6-2.4-1.5 0-1 1.1-1.5 3.5-1.5 3.5 0 3.5 0 3.5 4.4 0 4.9-.9 5.6-6.8 5.6-5.1 0-8.2-3.2-8.2-8.5 0-7.4 5.5-11.2 12.4-8.5zm28.4-.4c1.2.4 2.2 1.3 2.2 2.1 0 1.1-.7 1.3-2.6.9-3.3-.9-6.4.1-6.4 1.9 0 .8 1.2 1.7 2.8 2.1 6.5 1.5 9 5.4 5.6 8.8-1.7 1.8-9 2.2-11.4.6-2.2-1.4-.3-2.5 4.3-2.5 6.6 0 6.2-1.8-1-4.5-3.7-1.4-4.6-3.1-3.3-6.4 1.1-3.1 5-4.3 9.8-3zm21 1.1c.2.9-1 1.3-4.2 1.3-4.2 0-4.6.2-4.6 2.5 0 2.2.4 2.5 4 2.5 2.9 0 4 .4 4 1.5s-1.1 1.5-4 1.5c-3.3 0-4 .3-4 2s.7 2 4.5 2c3.4 0 4.5.4 4.5 1.5 0 1.3-1.1 1.5-6.2 1.3l-6.3-.3-.3-7.9c-.2-5.7.1-8.2 1-8.8 1.9-1.2 11.1-.5 11.6.9zm18.8.4c1.6 1.3 1.8 4.3.4 6.9-.7 1.3-.7 2.1 0 2.5.5.3 1 1.9 1 3.6 0 3.9-2.6 3.8-3.3-.1-.6-2.7-1.1-3-4.2-3-3.2 0-3.5.2-3.5 3 0 2-.5 3-1.5 3-1.2 0-1.5-1.6-1.5-8.3 0-4.6.3-8.7.8-9.1 1-1.1 10.1.1 11.8 1.5zm11.4 5.3l2.7 6.8 2.2-6.1c1.3-3.3 2.9-6.5 3.6-7.1 2.7-2.3 2.5 1.1-.7 9-4.3 10.5-5.8 10.5-10.5-.3-3.1-7.5-3.4-10.2-1.1-9.5.6.2 2.3 3.5 3.8 7.2zm19 2.2c0 6.8-.3 8.4-1.5 8.4s-1.5-1.6-1.5-8.3c0-4.6.3-8.7.6-9 1.7-1.6 2.4 1.1 2.4 8.9zm19.1-8.6c2.9 1.6 2.3 3.3-1 2.7-4.3-.9-6.8.2-8.1 3.4-1 2.4-1 3.3.5 5.5 1.5 2.3 2.2 2.6 6.1 2.1 4.8-.5 5.9 0 4.3 2-1.7 1.9-9.3 1.6-11.9-.5-1.3-1.1-2.3-3.3-2.7-5.9-.5-3.7-.2-4.6 2.5-7.3 3.2-3.1 6.8-3.8 10.3-2zm19.3-.4c3.2 1.2 1.5 2.4-3.4 2.4-4.7 0-5 .2-5 2.5s.4 2.5 4.6 2.5c5.9 0 5.5 2.4-.4 2.8-3.3.3-4.2.7-4.2 2.2 0 1.5.9 1.9 4.5 2.2 6.8.5 5.9 2.3-1.2 2.6l-6.3.3v-8.4c0-4.6.3-8.7.7-9 .8-.9 8.6-.9 10.7-.1zm-103.1 76.6c-.2.5-.8.8-1.4.8-1.1 0-1.2-13.3-.1-14.4.7-.8 2.3 12.4 1.5 13.6zM233 528.7c0 1.5.5 2 1.8 1.6 2.6-.6 5.4 3.1 5.6 7.3.2 5.4-2.2 5.6-2.6.2-.2-3.1-.8-4.4-2-4.6-1.5-.3-1.8.4-1.8 4.2 0 2.5-.4 4.6-.8 4.6-.9 0-3.2-16.1-2.5-17.4.8-1.2 2.3 1.5 2.3 4.1zm-54.4-.2c2 3 3.4 3.2 4.1.5.8-3.1 2.6-2.4 2 .7-1.5 6.9-3.2 12.3-4.1 12.3-.5 0-.6-1.8-.3-4 .4-3.5.1-4.4-2.4-6.9-2.9-3-3.7-5.1-1.9-5.1.5 0 1.7 1.1 2.6 2.5zm86.1.5c.3 1.6 1.2 3 1.9 3 .8 0 1.4.4 1.4 1 0 .5-.7 1-1.5 1-1.1 0-1.5 1.1-1.5 4 0 4-1.3 5.3-2.4 2.4-.3-.9-.6-2.5-.6-3.6 0-1.2-.8-2.7-1.7-3.4-1.7-1.3-1.7-1.3 0-1.4 1.2 0 1.7-.8 1.7-3 0-1.7.5-3 1-3 .6 0 1.3 1.3 1.7 3zm46.3.6c0 1.5.6 2.4 1.5 2.4.8 0 1.5.4 1.5 1 0 .5-.7 1-1.5 1-1.1 0-1.5 1.1-1.5 4 0 5.1-1.7 5.2-2.6.2-.4-2-1.4-4.2-2.3-4.9-1.4-1.1-1.4-1.2.2-1.3 1.1 0 1.7-.8 1.7-2.3 0-1.3.3-2.7.6-3 1.2-1.1 2.4.3 2.4 2.9zm145 0c0 1.5.6 2.4 1.5 2.4.8 0 1.5.4 1.5 1 0 .5-.7 1-1.5 1-1.1 0-1.5 1.1-1.5 4 0 5.1-1.7 5.2-2.6.2-.4-2-1.4-4.2-2.3-4.9-1.4-1.1-1.4-1.2.2-1.3 1.1 0 1.7-.8 1.7-2.3 0-1.3.3-2.7.6-3 1.2-1.1 2.4.3 2.4 2.9zM300.5 528c.3.5-.1 1-.9 1-.9 0-1.6-.5-1.6-1 0-.6.4-1 .9-1 .6 0 1.3.4 1.6 1zm145 0c.3.5-.1 1-.9 1-.9 0-1.6-.5-1.6-1 0-.6.4-1 .9-1 .6 0 1.3.4 1.6 1zm-61 6.8c0 8.5-1.9 8.4-2.3-.1-.2-5.3 0-6.8 1-6.5.9.3 1.3 2.5 1.3 6.6zm-131.1-2.7c2.9 3.4 3.5 8.4 1 9.3-4.4 1.7-10.4-.2-10.4-3.2 0-2.6 2-4.2 5.3-4.2 1.6 0 2.6-.4 2.2-1-.3-.6-1.5-1-2.6-1-1.9 0-2.5-1.1-1.2-2.3 1.3-1.4 3.2-.6 5.7 2.4zm25.6-1.6c1.9 2.3.7 4.9-3 6.1-3.4 1.1-3.4 1.1-1.1 2.4 1.3.6 3.4 1 4.8.7 1.5-.3 2.2 0 2 .7-.7 2-7.1 1.9-9.1-.3-2.1-2.3-2.4-7.4-.6-9.6 1.6-1.9 5.4-1.9 7 0zm84 .6c.9 1.6.8 2.5-.6 4-.9 1-2.7 1.9-3.8 1.9-2.1.1-2.1.1-.2 1.5 1.1.8 3.3 1.5 4.9 1.5 1.6 0 2.6.4 2.2 1-.3.5-2.2 1-4.1 1-4 0-7.4-2.9-7.4-6.3 0-5.7 6.7-9.1 9-4.6zm61-.6c1.9 2.3.7 4.9-3 6.1-3.4 1.1-3.4 1.1-1.1 2.4 1.3.6 3.4 1 4.8.7 1.5-.3 2.2 0 2 .7-.7 2-7.1 1.9-9.1-.3-2.1-2.3-2.4-7.4-.6-9.6 1.6-1.9 5.4-1.9 7 0zm-218.3 2.4c0 3.9 2.1 6.5 3.9 5 .8-.6 1.4-2.2 1.4-3.5 0-2.3 1.5-4.1 2.3-2.7 1.1 2 1.8 10.3.8 10.3-.6 0-1.1-.8-1.1-1.7 0-1.3-.3-1.4-1.2-.5-1.6 1.6-5.3 1.5-6.6-.1-1.5-1.7-2.5-6.4-1.8-8.2.9-2.5 2.3-1.7 2.3 1.4zm-7.7.1c2.4 2.4 2.5 4.7.3 7.2-3.1 3.5-10.3 1.4-10.3-3 0-2.2 1-3.6 3.5-5 2.9-1.6 4.2-1.5 6.5.8zm103-1.3c.1.5.5 2.7.9 5.1.5 2.5.5 4.5-.1 4.8-1.4.9-1.7.3-2.4-5.4-.4-3.5-.2-5.2.5-5.2.6 0 1.1.3 1.1.7zm36.7 2c-.7 3.8.9 6.8 2.9 5.2.8-.6 1.4-2 1.4-3.1 0-2.6 2.4-1.8 2.8 1 .2 1.2.9 2.2 1.6 2.2 2.1 0 2.5-1.1 1.6-3.6-.7-1.9-.6-2.4.5-2.4 1.9 0 3.1 4.8 1.8 6.9-.7 1.2-2.6 1.6-6.9 1.6-5.2 0-6-.3-7.3-2.6-.9-1.6-1.1-3.6-.7-5.2.9-3.6 3-3.5 2.3 0zm59.7-1.4c2.1 1.6 2.4 6 .6 8.2-1.6 1.9-7.4 2-8.9.1-2-2.4-.9-6.9 1.9-8.3 3.2-1.6 4.2-1.6 6.4 0zm48.6-.6c.1.5.5 2.7.9 5.1.5 2.5.5 4.5-.1 4.8-1.4.9-1.7.3-2.4-5.4-.4-3.5-.2-5.2.5-5.2.6 0 1.1.3 1.1.7zm-39.6 3.5l1.3 3.3 1.3-2.8c1.3-2.7 3-3.7 3-1.7 0 2.1-2.9 8-3.9 8-1.1 0-5.1-7.1-5.1-9 0-2.2 2.1-.8 3.4 2.2zm-87.2 6.9c-.5 5.5-2.2 5.9-2.2.5 0-3.4.4-4.6 1.3-4.3.7.2 1.1 1.8.9 3.8zm145.8-1.6c0 .8-.7 1.5-1.5 1.5s-1.5-.7-1.5-1.5.7-1.5 1.5-1.5 1.5.7 1.5 1.5z"/><path d="M74 218v13h11.5c7.6 0 12.7-.5 14.9-1.4 10.9-4.5 10.1-20.4-1.2-23.6-2-.5-8.5-1-14.4-1H74v13zM144 217v12h12.3c9.9 0 13-.4 16.4-2 5.2-2.3 7.9-7.1 6.9-12.2-1.4-7.4-7.4-9.8-24.3-9.8H144v12zM115.9 316.4c-6.2 2.2-10.4 5.3-12.8 9.6-1.9 3.5-2.3 5.2-1.9 10.6.3 5.4.8 6.8 3.3 9.5 4 4.2 6.5 5.3 19.2 9 18.8 5.4 22.1 8.6 17.8 16.8-3 5.8-15.9 7.8-28 4.4-3.3-.9-7.6-1.7-9.5-1.7-2.9-.1-3.6.3-3.8 2.2-.5 3.5 1.4 5 9.2 7.4 9.2 2.8 22 3 29.2.5 8.4-2.9 13.4-9.5 13.4-17.8 0-9.6-5.8-15.3-19.2-18.9-19-4.9-22.8-7.1-22.8-13 0-4.5 1.5-6.7 6-9 6-3 11.6-3.4 21.3-1.5 4.8.9 9.4 1.5 10.2 1.1 2.3-.8 1.8-5.3-.7-7-5.5-3.4-23.8-4.8-30.9-2.2zM247.1 316.7c-2.1 1.8-28.1 62.1-28.1 65.2 0 2.4 2 4.1 4.6 4.1 2.7 0 3-.4 7.1-10l3.1-7.5h34.5l3.6 8.5c3.6 8.3 3.7 8.5 7.1 8.5 3 0 3.5-.3 3.8-2.7.4-3.4-24.3-62.4-27.5-65.6-2.7-2.7-5.3-2.8-8.2-.5zm10.7 26.6c3.4 8.3 6.2 15.5 6.2 15.9 0 1-24.7 1-25.3 0-.6-.8 11.5-31.2 12.3-31.2.3 0 3.3 6.9 6.8 15.3zM361.2 316.6c-2.2 1.5-2.2 1.6-2.2 33.5 0 20.2.4 32.7 1 34 1.1 1.9 3.5 2.4 6.4 1.3 1.4-.5 1.6-4.5 1.6-34.5 0-32.4-.1-33.9-1.9-34.9-2.5-1.3-2.2-1.3-4.9.6zM409.3 317c-9.3 3.3-14.7 8.3-19 17.5-2.5 5.4-2.8 7.1-2.8 16.5 0 9.9.2 11 3.3 17.2 6 12.3 16.1 18.2 31.2 18.2 15.2 0 25.1-6.1 31.4-19.3 2.8-6 3.1-7.5 3-16.1-.1-18.1-7.4-29.1-22.8-34.3-6.6-2.3-17.7-2.1-24.3.3zm24.3 9.2c13.1 6.1 18.1 23.7 10.9 38.4-9.7 19.9-40.7 17.2-47-4-3.4-11.4-.7-23.4 6.9-30.4 3.8-3.5 6.7-5 13.1-6.6 3.5-.8 11.6.4 16.1 2.6zM479.2 316c-1.2.5-2.6 1.8-3 2.9-.4 1.1-.5 16.5-.2 34.3l.5 32.3 3.2.3c5.2.5 5.4-.8 5.1-30.3-.2-14.6-.1-26.5.2-26.5.3 0 9.3 12.7 20 28.3 19.4 28 19.5 28.2 23.4 28.5 2.5.2 4.4-.2 5.7-1.4 1.8-1.6 1.9-3.5 1.9-34.5 0-31.8-.1-32.9-2-33.9-1.7-.9-4.6-.3-6.2 1.3-.1.1-.5 12.6-.8 27.8l-.5 27.6-19-27.5c-10.4-15.1-19.9-28.1-21-28.8-2.2-1.6-4-1.7-7.3-.4zM157.8 318.5c-2.1 4.6 0 5.5 12.8 5.5H182v29.8c0 31.3.1 32.2 4.5 32.2s4.5-.9 4.5-32.2V324h11.4c12.8 0 14.9-.9 12.8-5.5L214 316h-55l-1.2 2.5zM288 317.4c-.6.8-1 2.5-.8 3.8.3 2.2.7 2.3 12.3 2.8l12 .5.2 29.4c.1 16.2.4 30 .7 30.8.3.7 1.9 1.3 3.6 1.3 2.4 0 3.3-.6 4-2.6.6-1.4 1-14.9 1-30.9v-28.4l11.8-.3c11.4-.3 11.7-.4 12-2.6.7-5.1 0-5.2-28.8-5.2-22.1 0-27 .3-28 1.4zM77 464.1c0 2.6.4 2.9 3 2.9 5.5 0 5.1-4.8-.4-5.4-2.3-.3-2.6 0-2.6 2.5zM96 464.1c0 2.4.4 2.9 2.3 2.9 1.3 0 3.2-.6 4.3-1.4 2.4-1.8 1-3.4-3.4-4-2.9-.3-3.2-.1-3.2 2.5zM117 463c-3.9 3.9-1.4 10 4.2 10 4.9 0 7-5.9 3.3-9.6-2.9-2.9-4.9-3-7.5-.4zM222 463c-3.9 3.9-1.4 10 4.2 10 4.9 0 7-5.9 3.3-9.6-2.9-2.9-4.9-3-7.5-.4zM269 465.9c-1.4 2.7-.9 3.4 1.8 2.9 1.9-.3 1.9-.5.8-2.7l-1.3-2.4-1.3 2.2zM324 464.1c0 2.4.4 2.9 2.3 2.9 1.3 0 3.2-.6 4.3-1.4 2.4-1.8 1-3.4-3.4-4-2.9-.3-3.2-.1-3.2 2.5zM345 463c-3.9 3.9-1.4 10 4.2 10 4.9 0 7-5.9 3.3-9.6-2.9-2.9-4.9-3-7.5-.4zM490.8 461.7c-1.1.3-1.8 1.4-1.8 2.9 0 1.8.5 2.4 2.3 2.4 1.3 0 3.2-.7 4.3-1.5 1.9-1.5 1.9-1.5 0-3-1.1-.8-2.2-1.4-2.5-1.4-.3.1-1.4.3-2.3.6zM247.3 536.7c-3.4 1.3.8 3.6 4.7 2.6 1.6-.4 1.8-.8.9-1.9-1.1-1.4-3.3-1.7-5.6-.7zM274 532.5c-.7.8-1 1.9-.6 2.2.9.9 3.8-.8 3.8-2.2-.1-1.6-1.8-1.6-3.2 0zM357.3 532.5c-.3.9-.3 1.8-.1 2.1.9.9 3.8-.8 3.8-2.2 0-1.9-2.9-1.8-3.7.1zM419 532.5c-.7.8-1 1.9-.6 2.2.9.9 3.8-.8 3.8-2.2-.1-1.6-1.8-1.6-3.2 0zM191 535.5c-1 1.2-1 1.8 0 3 1.7 2 3.3 1.9 5.3-.3 1.3-1.4 1.4-2.1.5-3-1.6-1.6-4.3-1.5-5.8.3zM391 535.5c-1.1 1.3-1.1 1.9.4 3.3 2 2 5.1.6 5.1-2.4 0-2.4-3.7-3-5.5-.9z"/></svg>